<svg width="20" height="23" viewBox="0 0 20 23" fill="none" xmlns="http://www.w3.org/2000/svg">
<path d="M16 7.41357C16 5.82228 15.3679 4.29615 14.2426 3.17093C13.1174 2.04572 11.5913 1.41357 10 1.41357C8.4087 1.41357 6.88258 2.04572 5.75736 3.17093C4.63214 4.29615 4 5.82228 4 7.41357C4 14.4136 1 16.4136 1 16.4136H19C19 16.4136 16 14.4136 16 7.41357Z" stroke="#596366" stroke-width="1.75" stroke-linecap="round" stroke-linejoin="round"/>
<path d="M11.73 20.4136C11.5542 20.7167 11.3019 20.9682 10.9982 21.1431C10.6946 21.318 10.3504 21.41 10 21.41C9.64964 21.41 9.30541 21.318 9.00179 21.1431C8.69818 20.9682 8.44583 20.7167 8.27002 20.4136" stroke="#596366" stroke-width="1.75" stroke-linecap="round" stroke-linejoin="round"/>
</svg>
