<svg width="24" height="24" viewBox="0 0 24 24" fill="none" xmlns="http://www.w3.org/2000/svg">
<path d="M9 22.4136C9.55228 22.4136 10 21.9659 10 21.4136C10 20.8613 9.55228 20.4136 9 20.4136C8.44772 20.4136 8 20.8613 8 21.4136C8 21.9659 8.44772 22.4136 9 22.4136Z" stroke="#596366" stroke-width="1.75" stroke-linecap="round" stroke-linejoin="round"/>
<path d="M20 22.4136C20.5523 22.4136 21 21.9659 21 21.4136C21 20.8613 20.5523 20.4136 20 20.4136C19.4477 20.4136 19 20.8613 19 21.4136C19 21.9659 19.4477 22.4136 20 22.4136Z" stroke="#596366" stroke-width="1.75" stroke-linecap="round" stroke-linejoin="round"/>
<path d="M1 1.41357H5L7.68 14.8036C7.77144 15.264 8.02191 15.6775 8.38755 15.9719C8.75318 16.2662 9.2107 16.4226 9.68 16.4136H19.4C19.8693 16.4226 20.3268 16.2662 20.6925 15.9719C21.0581 15.6775 21.3086 15.264 21.4 14.8036L23 6.41357H6" stroke="#596366" stroke-width="1.75" stroke-linecap="round" stroke-linejoin="round"/>
</svg>
