<svg width="55" height="56" viewBox="0 0 55 56" fill="none" xmlns="http://www.w3.org/2000/svg">
<path d="M22.2063 35.5003V45.5001C22.2063 47.4892 22.9964 49.3968 24.4029 50.8033C25.8094 52.2098 27.717 53 29.7061 53L39.706 30.5004V3.0009H11.5065C10.3007 2.98727 9.13056 3.40988 8.21176 4.19087C7.29296 4.97185 6.68736 6.05858 6.50656 7.25083L3.05662 29.7504C2.94785 30.467 2.99618 31.1987 3.19827 31.8948C3.40035 32.5908 3.75135 33.2346 4.22695 33.7816C4.70255 34.3285 5.29138 34.7655 5.95264 35.0623C6.61389 35.3591 7.33177 35.5085 8.05653 35.5003H22.2063ZM39.706 3.0009H46.3808C47.7957 2.97588 49.1705 3.47123 50.2443 4.39292C51.3181 5.31462 52.016 6.59849 52.2057 8.00081V25.5005C52.016 26.9028 51.3181 28.1867 50.2443 29.1084C49.1705 30.0301 47.7957 30.5254 46.3808 30.5004H39.706" fill="#CDDAFF"/>
<path d="M39.706 3.0009H46.3808C47.7957 2.97588 49.1705 3.47123 50.2443 4.39292C51.3181 5.31462 52.016 6.59849 52.2057 8.00081V25.5005C52.016 26.9028 51.3181 28.1867 50.2443 29.1084C49.1705 30.0301 47.7957 30.5254 46.3808 30.5004H39.706M22.2063 35.5003V45.5001C22.2063 47.4892 22.9964 49.3968 24.4029 50.8033C25.8094 52.2098 27.717 53 29.7061 53L39.706 30.5004V3.0009H11.5065C10.3007 2.98727 9.13056 3.40988 8.21176 4.19087C7.29296 4.97185 6.68736 6.05858 6.50656 7.25083L3.05662 29.7504C2.94785 30.467 2.99618 31.1987 3.19827 31.8948C3.40035 32.5908 3.75135 33.2346 4.22695 33.7816C4.70255 34.3285 5.29138 34.7655 5.95264 35.0623C6.61389 35.3591 7.33177 35.5085 8.05653 35.5003H22.2063Z" stroke="#7E9BE7" stroke-width="5" stroke-linecap="round" stroke-linejoin="round"/>
</svg>
