<svg width="51" height="50" viewBox="0 0 51 50" fill="none" xmlns="http://www.w3.org/2000/svg">
<path d="M36.9179 16.3924C40.5701 16.3924 43.5308 13.4317 43.5308 9.77946C43.5308 6.12722 40.5701 3.1665 36.9179 3.1665C33.2657 3.1665 30.3049 6.12722 30.3049 9.77946C30.3049 13.4317 33.2657 16.3924 36.9179 16.3924Z" fill="#CDDAFF" stroke="#7E9BE7" stroke-width="5" stroke-linecap="round" stroke-linejoin="round"/>
<path d="M10.4661 31.8226C14.1183 31.8226 17.0791 28.8619 17.0791 25.2096C17.0791 21.5574 14.1183 18.5967 10.4661 18.5967C6.81387 18.5967 3.85315 21.5574 3.85315 25.2096C3.85315 28.8619 6.81387 31.8226 10.4661 31.8226Z" fill="#CDDAFF" stroke="#7E9BE7" stroke-width="5" stroke-linecap="round" stroke-linejoin="round"/>
<path d="M36.9179 47.2532C40.5701 47.2532 43.5308 44.2925 43.5308 40.6403C43.5308 36.9881 40.5701 34.0273 36.9179 34.0273C33.2657 34.0273 30.3049 36.9881 30.3049 40.6403C30.3049 44.2925 33.2657 47.2532 36.9179 47.2532Z" fill="#CDDAFF" stroke="#7E9BE7" stroke-width="5" stroke-linecap="round" stroke-linejoin="round"/>
<path d="M16.1753 28.5381L31.2308 37.3113" stroke="#7E9BE7" stroke-width="5" stroke-linecap="round" stroke-linejoin="round"/>
<path d="M31.2087 13.1074L16.1753 21.8806" stroke="#7E9BE7" stroke-width="5" stroke-linecap="round" stroke-linejoin="round"/>
</svg>
