<svg width="50" height="50" viewBox="0 0 50 50" fill="none" xmlns="http://www.w3.org/2000/svg">
<path d="M36.3147 16.3924C39.967 16.3924 42.9277 13.4317 42.9277 9.77946C42.9277 6.12722 39.967 3.1665 36.3147 3.1665C32.6625 3.1665 29.7018 6.12722 29.7018 9.77946C29.7018 13.4317 32.6625 16.3924 36.3147 16.3924Z" stroke="#A0A8B0" stroke-width="5" stroke-linecap="round" stroke-linejoin="round"/>
<path d="M9.86295 31.8226C13.5152 31.8226 16.4759 28.8619 16.4759 25.2096C16.4759 21.5574 13.5152 18.5967 9.86295 18.5967C6.21072 18.5967 3.25 21.5574 3.25 25.2096C3.25 28.8619 6.21072 31.8226 9.86295 31.8226Z" stroke="#A0A8B0" stroke-width="5" stroke-linecap="round" stroke-linejoin="round"/>
<path d="M36.3147 47.2532C39.967 47.2532 42.9277 44.2925 42.9277 40.6403C42.9277 36.9881 39.967 34.0273 36.3147 34.0273C32.6625 34.0273 29.7018 36.9881 29.7018 40.6403C29.7018 44.2925 32.6625 47.2532 36.3147 47.2532Z" stroke="#A0A8B0" stroke-width="5" stroke-linecap="round" stroke-linejoin="round"/>
<path d="M15.5721 28.5381L30.6276 37.3113" stroke="#A0A8B0" stroke-width="5" stroke-linecap="round" stroke-linejoin="round"/>
<path d="M30.6056 13.1074L15.5721 21.8806" stroke="#A0A8B0" stroke-width="5" stroke-linecap="round" stroke-linejoin="round"/>
</svg>
