<svg width="56" height="55" viewBox="0 0 56 55" fill="none" xmlns="http://www.w3.org/2000/svg">
<path d="M52.9999 26.1112C53.0095 29.7774 52.1529 33.3942 50.4999 36.6667C48.54 40.5882 45.527 43.8866 41.7984 46.1925C38.0698 48.4983 33.7728 49.7205 29.3888 49.7222C25.7226 49.7318 22.1058 48.8752 18.8333 47.2222L3 52.5L8.27777 36.6667C6.6248 33.3942 5.76821 29.7774 5.77777 26.1112C5.77947 21.7272 7.00169 17.4302 9.30754 13.7016C11.6134 9.97298 14.9118 6.95998 18.8333 5.00008C22.1058 3.34711 25.7226 2.49052 29.3888 2.50008H30.7777C36.5676 2.8195 42.0362 5.2633 46.1364 9.36357C50.2367 13.4638 52.6805 18.9324 52.9999 24.7223V26.1112Z" stroke="#A0A8B0" stroke-width="5" stroke-linecap="round" stroke-linejoin="round"/>
</svg>
