<svg width="55" height="56" viewBox="0 0 55 56" fill="none" xmlns="http://www.w3.org/2000/svg">
<path d="M15.4999 52.9997H7.99997C6.67389 52.9997 5.40213 52.4729 4.46446 51.5352C3.52678 50.5975 3 49.3258 3 47.9997V30.4998C3 29.1738 3.52678 27.902 4.46446 26.9643C5.40213 26.0266 6.67389 25.4999 7.99997 25.4999H15.4999M32.9998 20.4999V10.5C32.9998 8.51084 32.2096 6.6032 30.8031 5.19669C29.3966 3.79017 27.489 3 25.4999 3L15.4999 25.4999V52.9997H43.6997C44.9056 53.0133 46.0757 52.5907 46.9945 51.8097C47.9133 51.0287 48.5189 49.942 48.6997 48.7497L52.1497 26.2499C52.2585 25.5332 52.2101 24.8016 52.008 24.1055C51.806 23.4094 51.4549 22.7656 50.9793 22.2187C50.5037 21.6717 49.9149 21.2347 49.2536 20.9379C48.5924 20.6411 47.8745 20.4917 47.1497 20.4999H32.9998Z" stroke="#A0A8B0" stroke-width="5" stroke-linecap="round" stroke-linejoin="round"/>
</svg>
