<svg width="36" height="36" viewBox="0 0 36 36" fill="none" xmlns="http://www.w3.org/2000/svg">
<path d="M18 36C27.9411 36 36 27.9411 36 18C36 8.05887 27.9411 0 18 0C8.05887 0 0 8.05887 0 18C0 27.9411 8.05887 36 18 36Z" fill="#FFCC4D"/>
<path d="M10.5149 23.621C10.5599 23.8 11.6829 28 17.9999 28C24.3179 28 25.4399 23.8 25.4849 23.621C25.5399 23.404 25.4419 23.179 25.2479 23.067C25.0529 22.956 24.8089 22.989 24.6479 23.144C24.6289 23.163 22.6939 25 17.9999 25C13.3059 25 11.3699 23.163 11.3519 23.145C11.2559 23.05 11.1279 23 10.9999 23C10.9159 23 10.8309 23.021 10.7539 23.064C10.5579 23.176 10.4599 23.403 10.5149 23.621Z" fill="#664500"/>
<path d="M12.0001 17C13.3808 17 14.5001 15.433 14.5001 13.5C14.5001 11.567 13.3808 10 12.0001 10C10.6194 10 9.50012 11.567 9.50012 13.5C9.50012 15.433 10.6194 17 12.0001 17Z" fill="#664500"/>
<path d="M24.0001 17C25.3808 17 26.5001 15.433 26.5001 13.5C26.5001 11.567 25.3808 10 24.0001 10C22.6194 10 21.5001 11.567 21.5001 13.5C21.5001 15.433 22.6194 17 24.0001 17Z" fill="#664500"/>
</svg>
