<svg width="36" height="36" viewBox="0 0 36 36" fill="none" xmlns="http://www.w3.org/2000/svg">
<path d="M36 18C36 27.941 27.941 36 18 36C8.06 36 0 27.941 0 18C0 8.06 8.06 0 18 0C27.941 0 36 8.06 36 18Z" fill="#FFCC4D"/>
<path d="M11.5 20C12.8807 20 14 18.433 14 16.5C14 14.567 12.8807 13 11.5 13C10.1193 13 9 14.567 9 16.5C9 18.433 10.1193 20 11.5 20Z" fill="#664500"/>
<path d="M24.5 20C25.8807 20 27 18.433 27 16.5C27 14.567 25.8807 13 24.5 13C23.1193 13 22 14.567 22 16.5C22 18.433 23.1193 20 24.5 20Z" fill="#664500"/>
<path d="M23.485 27.879C23.474 27.835 22.34 23.5 18 23.5C13.66 23.5 12.526 27.835 12.515 27.879C12.462 28.092 12.559 28.31 12.747 28.423C12.935 28.535 13.18 28.509 13.343 28.363C13.352 28.355 14.356 27.5 18 27.5C21.59 27.5 22.617 28.33 22.656 28.363C22.751 28.453 22.875 28.5 23 28.5C23.084 28.5 23.169 28.479 23.246 28.436C23.442 28.324 23.54 28.097 23.485 27.879Z" fill="#664500"/>
</svg>
